<svg xmlns="http://www.w3.org/2000/svg" width="512" height="512" viewBox="0 0 512 512" style="overflow: visible;" data-svgdocument="" id="_lozZXmrQ4Bjc2v8Jjk5tP" class="fl-svgdocument" x="0" y="0" overflow="hidden" data-bbox="88.47216879065084 77.16452326151504 340.1480384795784 279.6301282965873"><defs id="_OCOhh_n_vN0Rio0Fz3bQR" transform="matrix(0.775489330291748, 0, 0, 0.775489330291748, -81.92650604248047, 101.79067993164062)" data-uid="o_f79h243ii_5"></defs><g transform="matrix(1.0000058412893085, 0, 0, 0.8599900736872833, -1.4210854715202004e-14, 35.84296433368534)" fill="rgba(255, 130, 72, 1)" data-uid="o_f79h243ii_9"><path d="M155.968 187.07h38.254c14.29-26.216 38.712-46.094 68.024-54.357
	c-5.897-14.318-19.979-24.397-36.419-24.397c-4.11 0-8.069 0.633-11.79 1.798c0.02-0.598 0.046-1.195 0.046-1.798
	c0-29.244-23.714-52.956-52.96-52.956c-25.223 0-46.309 17.632-51.642 41.239c-3.168-1.056-6.548-1.634-10.069-1.634
	c-10.834 0-20.398 5.424-26.133 13.703c-3.2-0.825-6.56-1.272-10.019-1.272c-22 0-39.834 17.835-39.834 39.836
	c0 21.997 17.835 39.836 39.834 39.836h63.687" fill="rgba(255, 130, 72, 1)" transform="matrix(1, 0, 0, 1, 0, 0)" data-uid="o_f79h243ii_10"></path><path d="M373.536 162.958c-20.468-21.893-49.607-35.578-81.941-35.578c-53.408 0-98.066 37.345-109.362 87.34
	c-6.704-2.236-13.865-3.466-21.318-3.466c-22.947 0-43.196 11.49-55.341 29.022c-6.779-1.751-13.888-2.692-21.216-2.692
	C37.768 237.584 0 275.352 0 321.942c0 46.588 37.768 84.361 84.358 84.361h93.011c0.196-28.675 23.489-51.858 52.206-51.858
	c5.446 0 10.697 0.835 15.633 2.382c-0.023-0.79-0.059-1.582-0.059-2.382c0-38.787 31.442-70.23 70.228-70.23
	c33.443 0 61.41 23.387 68.483 54.691c4.197-1.401 8.678-2.17 13.346-2.17c14.368 0 27.051 7.194 34.655 18.175
	c4.245-1.098 8.696-1.688 13.284-1.688c19.231 0 36.057 10.279 45.295 25.637c13.396-14.793 21.557-34.414 21.557-55.94
	c0-46.056-37.332-83.384-83.384-83.384c-8.696 0-17.08 1.333-24.963 3.803c0.041-1.263 0.096-2.529 0.096-3.803
	c0-18.832-4.641-36.579-12.845-52.163" fill="rgba(255, 130, 72, 1)" transform="matrix(1, 0, 0, 1, 0, 0)" data-uid="o_f79h243ii_11"></path><path d="M89.442 237.74c-1.682-0.102-3.376-0.157-5.084-0.157C37.768 237.582 0 275.351 0 321.941
	c0 46.588 37.768 84.361 84.358 84.361h93.011c0.061-8.998 2.4-17.454 6.464-24.823C137.844 346.086 103.961 295.755 89.442 237.74z
	" fill="rgba(255, 130, 72, 1)" transform="matrix(1, 0, 0, 1, 0, 0)" data-uid="o_f79h243ii_12"></path><path d="M81.614 174.026c0-27.362 4.208-53.738 11.999-78.528c-8.402 1.551-15.646 6.407-20.333 13.171
	c-3.2-0.825-6.56-1.272-10.019-1.272c-22 0-39.834 17.835-39.834 39.836c0 21.997 17.835 39.836 39.834 39.836h18.678
	C81.727 182.747 81.614 178.4 81.614 174.026z" fill="rgba(255, 130, 72, 1)" transform="matrix(1, 0, 0, 1, 0, 0)" data-uid="o_f79h243ii_13"></path><path d="M445.146 350.991c-4.588 0-9.041 0.588-13.284 1.688c-7.604-10.982-20.287-18.175-34.655-18.175
	c-4.668 0-9.149 0.769-13.346 2.17c-7.074-31.305-35.04-54.691-68.483-54.691c-38.786 0-70.228 31.443-70.228 70.23
	c0 0.8 0.035 1.592 0.059 2.382c-4.936-1.547-10.187-2.382-15.633-2.382c-28.835 0-52.212 23.373-52.212 52.216
	c0 28.835 23.378 52.21 52.212 52.21h156.329h29.013h30.23c29.175 0 52.827-23.651 52.827-52.824
	C497.973 374.64 474.321 350.991 445.146 350.991z" fill="rgba(255, 130, 72, 1)" transform="matrix(1, 0, 0, 1, 0, 0)" data-uid="o_f79h243ii_14"></path><path d="M285.258 337.525c0-18.847 4-36.758 11.185-52.941c-29.585 8.267-51.295 35.403-51.295 67.627
	c0 0.8 0.035 1.592 0.059 2.382c-4.936-1.547-10.187-2.382-15.633-2.382c-28.835 0-52.212 23.373-52.212 52.216
	c0 28.835 23.378 52.21 52.212 52.21h132.677C316.86 436.184 285.258 390.545 285.258 337.525z" fill="rgba(255, 130, 72, 1)" transform="matrix(1, 0, 0, 1, 0, 0)" data-uid="o_f79h243ii_15"></path></g><path id="_tMLbDoPeHYDf8vvgFsJ3A" fill="#ffffff" d="M96.897 37.513c1.921 0 3.478-1.558 3.478-3.479c0-1.92-1.557-3.478-3.478-3.478s-3.478 1.558-3.478 3.478  c0 0.422 0.079 0.825 0.217 1.2l-10.153 8.649l-12.864-7.567c0.073-0.297 0.116-0.607 0.116-0.927c0-2.142-1.736-3.878-3.878-3.878  c-0.869 0-1.668 0.289-2.314 0.772L52.92 23.054c0.054-0.22 0.086-0.448 0.086-0.684c0-1.581-1.281-2.861-2.861-2.861  s-2.861 1.281-2.861 2.861c0 0.729 0.275 1.393 0.724 1.898l-5.835 12.488c-0.26-0.045-0.526-0.074-0.8-0.074  c-0.86 0-1.662 0.239-2.351 0.647l-15.438-6.915c0.036-0.225 0.06-0.454 0.06-0.689c0-2.38-1.929-4.309-4.309-4.309  c-2.379 0-4.309 1.929-4.309 4.309s1.929 4.309 4.309 4.309c1.352 0 2.556-0.623 3.346-1.596l14.682 6.576  c-0.384 0.674-0.607 1.452-0.607 2.284c0 0.852 0.293 1.605 0.694 2.29l-8.233 8.237c-1.136-0.811-2.506-1.294-4.003-1.294  c-2.642 0-4.915 1.501-6.082 3.684l-0.096-0.032c-0.001 0.012-0.004 0.023-0.005 0.035L7.553 49.002  c0.016-0.134 0.025-0.271 0.025-0.409c0-1.989-1.612-3.601-3.601-3.601s-3.601 1.612-3.601 3.601s1.612 3.601 3.601 3.601  c1.054 0 1.999-0.455 2.657-1.177l11.723 5.329c-0.005 0.013-0.009 0.025-0.015 0.037l0.056 0.019  c-0.054 0.348-0.108 0.694-0.108 1.055c0 1.954 0.813 3.716 2.115 4.975l-0.017 0.013c0.004 0.005 0.008 0.01 0.012 0.014  l-5.973 8.802c-0.155-0.027-0.314-0.044-0.478-0.044c-1.479 0-2.678 1.198-2.678 2.678c0 1.479 1.199 2.678 2.678 2.678  c1.479 0 2.678-1.199 2.678-2.678c0-0.501-0.14-0.969-0.38-1.37l5.364-7.904l0.71-0.877c0.881 0.407 1.859 0.641 2.894 0.641  c1.902 0 3.629-0.771 4.883-2.016l6.993 4.991c-0.199 0.514-0.334 1.06-0.334 1.641c0 2.548 2.065 4.617 4.617 4.617  c2.159 0 3.965-1.483 4.471-3.482l15.916-4.923c0.977 1.815 2.893 3.05 5.099 3.05c1.273 0 2.447-0.417 3.403-1.114l7.12 6.611  c-0.038 0.193-0.059 0.393-0.059 0.597c0 1.734 1.406 3.14 3.14 3.14s3.139-1.405 3.139-3.14c0-1.733-1.405-3.139-3.139-3.139  c-0.707 0-1.358 0.236-1.883 0.631l-6.811-6.323c0.552-0.887 0.893-1.93 0.893-3.05c0-2.815-1.661-5.16-4.661-5.677V39.104  c1-0.172 1.082-0.478 1.513-0.878l13.332 7.848l11.179 15.655c-0.092 0.23-0.146 0.481-0.146 0.745c0 1.125 0.91 2.037 2.035 2.037  s2.037-0.912 2.037-2.037s-0.913-2.037-2.038-2.037c-0.03 0-0.06 0.003-0.09 0.005L85.094 45.422l9.931-8.459  C95.565 37.31 96.207 37.513 96.897 37.513z M61.07 62.474c0 0.21 0.013 0.416 0.035 0.62l-15.275 4.724  c-0.522-1.975-2.316-3.435-4.458-3.435c-1.123 0-2.114 0.451-2.913 1.113l-7.038-5.022c0.447-0.92 0.717-1.93 0.717-3.017  c0-1.492-0.487-2.871-1.29-3.999l8.233-8.237c0.686 0.401 1.438 0.694 2.291 0.694c1.642 0 3.079-0.857 3.897-2.147l17.222 14.914  C61.609 59.699 61.07 61.022 61.07 62.474z M66 56.797c-1 0.1-1.135 0.273-1.596 0.502l-18.36-15.846  c0.002-0.052-0.023-0.102-0.023-0.154c0-1.485-0.718-2.802-1.806-3.646l5.799-12.428c0.046 0.002 0.088 0.007 0.134 0.007  c0.53 0 1.023-0.147 1.449-0.399l11.621 9.229c-0.151 0.415-0.113 0.861-0.113 1.328c0 1.757 0.895 3.238 2.895 3.715V56.797z" transform="matrix(3.3348625616553567, 0, 0, 3.3348625616553567, 166.68254662982238, 170.10615726039006)" data-uid="o_f79h243ii_16"></path></svg>